<svg width="632" height="602" viewBox="0 0 632 602" fill="none" xmlns="http://www.w3.org/2000/svg">
<path d="M224.975 581.043L236.261 579.765L236.692 535.773L220.035 537.658L224.975 581.043Z" fill="#FFB6B6"/>
<path d="M259.217 587.749L223.747 591.76L222.191 578.102L243.957 575.64C247.592 575.229 251.241 576.274 254.103 578.545C256.965 580.816 258.804 584.126 259.217 587.749Z" fill="#2F2E41"/>
<path d="M108.906 580.341H120.265L125.668 536.676L108.904 536.678L108.906 580.341Z" fill="#FFB6B6"/>
<path d="M142.171 590.851L106.473 590.852L106.473 577.106L128.378 577.105C132.036 577.105 135.544 578.553 138.131 581.131C140.718 583.709 142.171 587.205 142.171 590.851Z" fill="#2F2E41"/>
<path d="M190.401 385.078L196.886 406.102L232.092 482.031L241.357 554.053L220.048 554.976L207.077 488.494L162.607 440.48L123.695 566.057L106.092 564.21C106.092 564.21 120.915 401.699 141.298 385.078C141.298 385.078 174.651 369.381 190.401 385.078Z" fill="#2F2E41"/>
<path d="M161.632 294.361C174.199 294.361 184.387 284.208 184.387 271.683C184.387 259.157 174.199 249.004 161.632 249.004C149.065 249.004 138.877 259.157 138.877 271.683C138.877 284.208 149.065 294.361 161.632 294.361Z" fill="#FFB6B6"/>
<path d="M192.718 389.235C192.718 389.235 195.497 295.052 156.586 301.515C117.674 307.979 133.887 398.93 133.887 398.93C133.887 398.93 142.225 415.55 162.608 397.083C182.99 378.616 192.718 389.235 192.718 389.235Z" fill="#CACACA"/>
<path opacity="0.2" d="M138.982 341.219L148.139 376.198L162.089 390.102L142.688 383.693L138.982 341.219Z" fill="#161616"/>
<path d="M193.005 429.066C191.725 428.603 190.561 427.866 189.598 426.907C188.634 425.948 187.893 424.79 187.427 423.514C186.961 422.239 186.781 420.877 186.9 419.525C187.019 418.173 187.434 416.863 188.116 415.688L166.475 390.717L183.535 388.504L201.471 412.556C203.375 413.828 204.745 415.753 205.321 417.965C205.897 420.177 205.639 422.523 204.596 424.558C203.552 426.593 201.796 428.176 199.66 429.007C197.523 429.838 195.156 429.859 193.005 429.066Z" fill="#FFB6B6"/>
<path d="M166.655 320.697L169.092 368.458L197.813 405.392L185.768 414.626L146.856 375.844C146.856 375.844 132.959 328.753 143.151 314.903C146.972 309.709 151.185 308.28 154.958 308.524C158.062 308.782 160.964 310.161 163.119 312.403C165.273 314.646 166.531 317.595 166.655 320.697Z" fill="#CACACA"/>
<path d="M158.927 295.512C159.036 295.415 159.12 295.294 159.174 295.159C159.228 295.024 159.249 294.878 159.236 294.733C159.223 294.588 159.176 294.448 159.1 294.324C159.023 294.2 158.919 294.096 158.795 294.02C156.774 292.772 155.128 291.006 154.029 288.905C152.93 286.805 152.418 284.448 152.549 282.083C152.679 279.718 153.446 277.431 154.77 275.464C156.093 273.496 157.924 271.92 160.07 270.901C166.76 267.722 175.825 270.195 180.771 264.086C181.777 262.779 182.488 261.271 182.856 259.666C183.224 258.06 183.241 256.394 182.904 254.781C181.837 249.011 177.485 244.727 172.611 241.79C166.623 238.183 159.742 236.319 152.746 236.409C145.75 236.5 138.92 238.542 133.029 242.303C127.137 246.064 122.421 251.395 119.414 257.691C116.406 263.987 115.228 270.996 116.013 277.925C116.643 283.478 118.362 289.705 115.049 294.214C112.133 298.182 106.629 298.926 101.794 299.912C91.4237 302.027 81.4192 306.905 74.3818 314.786C67.3444 322.666 63.5902 333.722 65.712 344.057C67.8338 354.393 76.346 363.476 86.8083 365.078C95.3241 366.382 104.117 362.777 110.371 356.871C116.624 350.964 120.577 342.988 123.071 334.768C126.03 325.013 127.197 314.5 132.54 305.81C137.768 297.306 149.035 291.21 157.865 295.639C158.034 295.727 158.226 295.762 158.416 295.739C158.605 295.717 158.784 295.638 158.927 295.512Z" fill="#2F2E41"/>
<path d="M335.354 591.999H50.9265C50.6808 591.999 50.4451 591.902 50.2713 591.729C50.0976 591.555 50 591.321 50 591.076C50 590.831 50.0976 590.596 50.2713 590.423C50.4451 590.25 50.6808 590.152 50.9265 590.152H335.354C335.6 590.152 335.835 590.25 336.009 590.423C336.183 590.596 336.28 590.831 336.28 591.076C336.28 591.321 336.183 591.555 336.009 591.729C335.835 591.902 335.6 591.999 335.354 591.999Z" fill="#3F3D56"/>
<path d="M562.669 213.862C562.608 244.431 551.077 273.872 530.341 296.396C509.605 318.921 481.164 332.9 450.611 335.586C420.058 338.271 389.601 329.469 365.23 310.909C340.858 292.349 324.334 265.374 318.907 235.288C313.479 205.201 319.54 174.18 335.899 148.321C352.257 122.463 377.729 103.638 407.308 95.5488C436.886 87.4592 468.431 90.6896 495.741 104.605C523.051 118.52 544.15 142.114 554.891 170.747C555.159 171.466 555.42 172.185 555.674 172.911V172.918C556.808 176.109 557.806 179.36 558.67 182.67C561.333 192.854 562.677 203.337 562.669 213.862Z" fill="#3F3D56"/>
<path d="M425.459 130.697C419.901 127.702 413.73 126.011 407.416 125.753C401.103 125.496 394.814 126.679 389.029 129.212C383.935 131.421 378.572 135.384 376.872 142.541C383.745 138.499 392.641 144.886 394.409 155.131L393.996 155.244C393.062 162.341 395.147 170.067 399.184 174.467C399.484 172.482 400.224 170.588 401.351 168.923C402.477 167.258 403.961 165.864 405.696 164.843C408.661 162.899 411.943 161.488 414.206 158.148C416.89 154.188 417.572 148.401 418.638 143.122C419.704 137.842 421.727 132.168 425.459 130.697Z" fill="#5666ED"/>
<path d="M386.991 191.086C385.087 193.935 382.545 195.722 380.264 197.948C377.63 200.335 375.903 203.554 375.372 207.063C375.083 209.541 375.53 212.061 375.468 214.568C375.406 217.074 374.568 219.896 372.857 220.519C370.157 221.491 368.095 216.492 365.319 216.143C363.114 215.869 361.128 219.327 361.767 222.327C362.406 225.326 365.409 226.654 367.133 224.696C368.693 227.305 367.594 232.037 365.251 232.838C365.003 234.482 364.756 236.118 364.515 237.762C358.593 233.632 352.608 229.435 347.572 223.388C341.97 216.72 338.496 208.536 337.595 199.886C336.942 192.935 337.911 184.985 334.709 179.637C332.146 175.357 329.958 174.233 326 174.5C325.279 174.548 323.6 175.5 323.1 175.5C325.434 168.513 327.943 161.953 331.501 155.5C332.306 155.155 332.835 154.068 333.501 153.5C337.184 150.384 338.914 144.184 341.903 139.822C342.096 139.541 342.295 139.267 342.501 139C345.559 135.021 348.753 132.687 352.711 130.783C361.471 126.544 370.486 122.251 379.735 122.84L377.103 123.093C374.032 131.667 370.958 140.24 367.882 148.814C367.415 150.129 366.943 151.446 366.467 152.765C364.721 157.641 362.921 162.832 363.189 168.289C363.347 171.522 364.474 174.973 366.618 176.082C368.617 177.11 370.802 175.849 372.733 174.603C373.551 174.083 374.361 173.562 375.179 173.035C378.113 171.152 381.363 169.221 384.462 170.481C387.299 171.631 389.395 175.473 389.794 179.616C390.159 183.643 389.173 187.678 386.991 191.086Z" fill="#5666ED"/>
<path d="M404.441 249.62C395.873 244.361 387.304 239.103 378.735 233.845L378.88 233.472C373.553 235.494 371.341 244.933 372.221 252.651C373.102 260.37 376.087 267.27 377.595 274.791C379.629 285.083 378.861 295.73 375.372 305.626C386.64 293.026 396.611 279.332 405.138 264.749C406.329 262.911 407.236 260.905 407.83 258.799C408.459 256.554 408.235 254.156 407.201 252.066C406.499 251.035 405.551 250.194 404.441 249.62Z" fill="#5666ED"/>
<path d="M370.623 153.956C369.616 156.11 369.461 158.562 370.188 160.824C371.034 162.646 372.568 164.062 374.456 164.763L379.19 167.102C380.765 167.88 382.463 168.666 384.069 168.025C386.006 167.253 387.348 164.227 387.001 161.418C386.631 158.429 384.741 156.372 382.992 154.621C380.545 152.171 378.098 149.72 375.651 147.27L374.272 148.953C372.78 150.403 371.546 152.095 370.623 153.956Z" fill="#5666ED"/>
<path d="M537.288 185.916C539.418 186.416 541.548 186.916 543.678 187.415C543.307 194.585 539.741 201.221 534.958 203.625C532.966 204.624 530.746 204.994 529.097 206.864C527.606 208.562 526.851 211.205 526.157 213.732C524.94 218.142 523.724 222.552 522.508 226.962C521.203 231.715 519.526 236.995 516.132 238.707C513.218 240.179 509.886 238.378 507.646 235.358C505.406 232.338 504.039 228.277 502.713 224.319C502.795 228.633 500.782 232.865 497.93 234.365C495.072 235.865 491.595 234.509 489.685 231.16C488.311 228.757 487.741 225.586 486.394 223.148C485.047 220.71 482.223 219.313 480.753 221.6C479.784 223.121 479.908 225.449 479.427 227.38C479.185 228.662 478.548 229.837 477.604 230.742C476.661 231.646 475.458 232.235 474.164 232.427C472.973 232.4 471.8 232.131 470.717 231.638C469.634 231.145 468.663 230.437 467.863 229.558C463.655 225.268 460.916 219.763 460.037 213.828C459.441 210.983 459.516 208.038 460.257 205.227C461.102 202.563 463.142 200.509 465.169 201.016C466.502 198.208 463.871 194.483 461.5 194.811C459.123 195.14 457.261 197.681 455.309 199.632C453.365 201.584 450.644 203.001 448.686 201.063C448.73 201.772 448.489 202.469 448.017 203.002C447.545 203.534 446.88 203.857 446.169 203.901C446.099 203.905 446.028 203.907 445.958 203.905C444.656 203.533 443.446 202.894 442.406 202.029C437.919 199.242 432.223 201.091 429.035 206.364C431.027 197.913 433.947 188.217 440.069 186.231C442.571 185.416 445.298 186.087 447.662 184.676C451.846 182.177 452.692 172.733 449.077 168.837C449.538 172.521 449.448 176.822 447.497 179.342C445.546 181.862 441.451 180.218 441.698 176.493C441.642 177.017 441.422 177.51 441.068 177.901C440.714 178.293 440.245 178.563 439.728 178.672C439.211 178.781 438.672 178.725 438.189 178.511C437.706 178.296 437.304 177.935 437.039 177.479C435.741 175.507 435.851 172.282 436.772 169.926C437.721 167.792 439.082 165.866 440.777 164.256C444.041 160.77 447.353 157.244 451.132 155.052C454.918 152.861 459.288 152.121 463.081 154.299C465.08 155.449 466.839 157.367 468.88 158.38C469.359 158.677 469.893 158.876 470.45 158.967C471.007 159.058 471.576 159.039 472.126 158.911C472.675 158.783 473.194 158.548 473.652 158.22C474.111 157.892 474.5 157.477 474.797 156.999C474.82 156.962 474.843 156.925 474.865 156.887C476.383 154.23 475.668 150.286 476.232 146.965C477.242 141.096 483.13 138.35 486.394 142.226C483.955 141.603 481.433 144.479 481.131 147.965C480.822 151.45 482.588 154.97 484.951 156.025C488.923 157.778 492.812 153.367 495.814 149.286C498.947 145.013 502.085 140.742 505.228 136.474C505.729 135.747 506.293 135.064 506.911 134.433C507.895 133.477 509.207 132.929 510.581 132.902C511.955 132.874 513.289 133.367 514.311 134.282C517.485 136.864 518.976 142.158 521.581 145.801C525.36 151.094 531.015 152.381 536.278 153.409C540.201 154.169 544.127 154.933 548.055 155.703C550.673 160.557 552.957 165.584 554.891 170.748C547.688 174.021 541.579 179.285 537.288 185.916Z" fill="#5666ED"/>
<path d="M549.973 268.311C547.029 274.268 543.605 279.977 539.735 285.382C537.262 284.328 534.602 286.211 532.287 287.978C529.868 289.827 526.962 291.628 524.481 289.943C521.946 288.218 521.128 283.39 521.932 279.562C522.856 276.03 524.472 272.716 526.687 269.81C528.748 266.742 530.954 263.558 533.819 262.366C536.691 261.175 540.381 262.859 541.219 266.927L543.253 266.859C542.112 265.297 542.71 262.065 544.243 261.497C546.008 260.833 547.541 263.25 548.585 265.386C549.052 266.352 549.526 267.324 549.973 268.311Z" fill="#5666ED"/>
<path d="M472.079 239.383C467.707 239.657 464.245 234.293 461.944 229.017C459.643 223.74 457.543 217.706 453.599 215.02C451.345 213.486 448.775 213.275 446.33 212.531C444.944 212.182 443.661 211.509 442.587 210.567C441.514 209.625 440.681 208.442 440.158 207.115L437.385 205.999C433.506 207.931 429.954 210.456 426.857 213.481C423.317 217.228 421.113 222.031 420.583 227.15C420.053 232.682 422.009 238.851 425.664 240.929C428.552 242.571 431.915 241.536 434.84 243.039C438.495 244.917 440.665 250.373 441.487 255.76C442.308 261.147 442.1 266.745 442.688 272.193C443.275 277.641 444.895 283.31 448.247 286.102C452.441 289.596 458.596 286.693 460.478 280.333C461.401 277.213 461.369 273.693 462.06 270.455C463.276 264.752 466.557 260.521 469.159 255.843C471.761 251.165 473.81 244.812 472.079 239.383Z" fill="#5666ED"/>
<path d="M428.881 183.347C429.289 183.721 429.669 184.123 430.02 184.551C430.382 185.174 430.567 185.884 430.555 186.604C430.543 187.324 430.333 188.027 429.95 188.637C430.476 188.607 430.991 188.469 431.461 188.231C431.931 187.993 432.347 187.66 432.681 187.254C433.479 186.348 434.181 185.363 434.776 184.313C435.056 183.954 435.255 183.539 435.362 183.097C435.468 182.655 435.479 182.195 435.393 181.748C435.187 181.161 434.699 180.91 434.356 180.469C433.882 179.605 433.558 178.667 433.398 177.695C433.208 176.784 432.767 175.944 432.125 175.269C431.482 174.595 430.664 174.112 429.761 173.875L429.98 173.917C429.607 174.137 429.313 174.469 429.138 174.864C428.964 175.26 428.918 175.7 429.007 176.123C429.139 176.977 429.69 177.687 429.636 178.558C429.557 179.812 428.3 180.4 428.222 181.653C428.21 182.282 428.447 182.89 428.881 183.347Z" fill="#5666ED"/>
<path d="M421.39 162.049L421.409 162.045C421.544 161.923 421.668 161.79 421.782 161.648L421.39 162.049Z" fill="#5666ED"/>
<path d="M422.701 167.933C423.226 167.474 423.614 166.88 423.824 166.215C424.033 165.551 424.055 164.842 423.888 164.166C423.57 162.741 422.446 161.783 421.409 162.046C421.108 162.35 420.735 162.573 420.324 162.694C419.913 162.814 419.479 162.829 419.061 162.736C418.42 162.571 417.716 162.148 417.16 162.629C416.842 162.988 416.619 163.422 416.513 163.889C416.307 164.518 416.101 165.148 415.895 165.777C415.798 166.003 415.772 166.252 415.822 166.493C415.862 166.589 415.925 166.674 416.007 166.738C416.089 166.803 416.186 166.846 416.289 166.862L419.992 167.951C420.418 168.146 420.881 168.245 421.349 168.242C421.817 168.239 422.278 168.134 422.701 167.933Z" fill="#5666ED"/>
<path d="M515.901 249.148C515.33 248.217 514.759 247.286 514.189 246.355C513.628 245.276 512.862 244.317 511.933 243.531C511.526 243.192 511.001 243.028 510.473 243.074C509.945 243.121 509.457 243.374 509.117 243.779L509.087 243.816L509.156 244.347C510.684 245.98 511.726 248.005 512.163 250.195C512.293 251.146 512.248 252.131 512.362 253.087C512.374 253.53 512.474 253.967 512.655 254.372C512.837 254.776 513.096 255.141 513.419 255.446C514.318 256.044 515.373 255.162 516.013 254.086C516.584 253.202 516.841 252.152 516.741 251.105C516.598 250.402 516.312 249.736 515.901 249.148Z" fill="#5666ED"/>
<path d="M524.853 250.36C524.961 249.488 524.89 248.603 524.644 247.76C524.603 246.619 524.906 245.492 525.515 244.524C526.12 243.612 526.578 242.611 526.873 241.558C526.997 241.078 526.975 240.572 526.808 240.105C526.619 239.682 526.161 239.489 525.899 239.824L526.461 240.184C525.702 240.049 524.923 240.087 524.181 240.294C523.758 240.456 523.38 240.716 523.08 241.054C522.779 241.392 522.564 241.797 522.454 242.235C522.361 242.918 522.21 243.592 522.001 244.249C521.666 244.935 521.017 245.163 520.61 245.766C520.332 246.3 520.192 246.894 520.202 247.496C520.212 248.097 520.372 248.687 520.667 249.211C521.179 250.069 521.993 250.707 522.95 251C523.636 251.245 524.539 251.258 524.853 250.36Z" fill="#5666ED"/>
<path d="M540.795 255.154C541.043 255.797 541.375 256.405 541.783 256.961C542.546 257.727 543.583 257.256 544.509 257.07C545.35 256.938 546.21 257.035 547 257.35C547.789 257.666 548.478 258.188 548.994 258.863C548.635 257.078 547.851 255.405 546.709 253.985C545.566 252.564 544.099 251.438 542.429 250.7C540.259 249.951 537.973 249.595 535.678 249.648L535.285 249.748C536.285 252.646 539.422 252.581 540.795 255.154Z" fill="#5666ED"/>
<path d="M473.273 261.082L473.279 261.094L473.392 260.876L473.273 261.082Z" fill="#5666ED"/>
<path d="M470.855 265.748C470.327 266.702 469.874 267.695 469.498 268.718C469 270.375 468.671 272.078 468.514 273.801C468.392 274.781 468.354 276.032 468.969 276.509C469.146 276.626 469.36 276.675 469.57 276.646C469.78 276.618 469.973 276.514 470.112 276.354C470.454 275.994 470.734 275.579 470.941 275.127C472.151 273.05 473.091 270.827 473.737 268.513C474.411 266.058 474.25 263.449 473.279 261.095C472.471 262.646 471.663 264.197 470.855 265.748Z" fill="#5666ED"/>
<path d="M447.524 141.448C447.908 141.822 448.394 142.076 448.921 142.179C449.448 142.281 449.994 142.228 450.491 142.025C451.521 141.576 452.465 140.955 453.283 140.187C453.961 139.687 454.535 139.063 454.976 138.347C455.219 137.919 455.374 137.448 455.434 136.96C455.493 136.472 455.455 135.977 455.322 135.504C455.133 135.05 454.831 134.652 454.444 134.348C454.058 134.043 453.6 133.842 453.114 133.762C451.743 133.357 450.373 132.952 449.003 132.548L449.994 131.657C448.974 131.112 447.846 132.124 447.208 133.377C446.8 134.196 446.515 135.07 446.363 135.972C446.146 136.914 446.138 137.892 446.338 138.837C446.539 139.783 446.943 140.674 447.524 141.448Z" fill="#5666ED"/>
<path d="M471.717 133.351C472.103 133.775 472.637 134.037 473.21 134.083C473.783 134.13 474.352 133.957 474.802 133.601C475.189 133.311 475.511 132.943 475.746 132.521C475.981 132.099 476.125 131.632 476.167 131.151C476.264 130.077 475.731 128.883 474.97 128.79L475.144 127.784C473.678 127.521 471.873 127.468 471.087 129.242C470.822 129.922 470.741 130.659 470.851 131.38C470.962 132.101 471.26 132.781 471.717 133.351Z" fill="#5666ED"/>
<path d="M372.033 205.703C377.085 205.703 381.18 200.23 381.18 193.479C381.18 186.728 377.085 181.255 372.033 181.255C366.982 181.255 362.886 186.728 362.886 193.479C362.886 200.23 366.982 205.703 372.033 205.703Z" fill="#FFC245"/>
<path d="M539.185 357.075C543.552 355.916 546.436 352.522 545.627 349.495C544.818 346.467 540.622 344.952 536.255 346.111C531.888 347.27 529.004 350.664 529.813 353.692C530.622 356.719 534.818 358.234 539.185 357.075Z" fill="#FFC245"/>
<path d="M485.701 358.059C490.068 356.899 492.952 353.506 492.143 350.478C491.334 347.45 487.138 345.936 482.771 347.095C478.405 348.254 475.52 351.648 476.329 354.675C477.138 357.703 481.334 359.218 485.701 358.059Z" fill="#FFC245"/>
<path d="M548.688 312.725C553.055 311.566 555.939 308.172 555.13 305.144C554.321 302.116 550.125 300.602 545.758 301.761C541.391 302.92 538.507 306.314 539.316 309.341C540.125 312.369 544.321 313.884 548.688 312.725Z" fill="#FFC245"/>
<path d="M564.462 293.872C566.433 293.629 567.747 291.141 567.396 288.316C567.044 285.492 565.161 283.399 563.189 283.643C561.217 283.886 559.904 286.374 560.255 289.199C560.607 292.024 562.49 294.116 564.462 293.872Z" fill="#FFC245"/>
<path d="M568.456 260.41C570.428 260.167 571.742 257.679 571.39 254.855C571.039 252.03 569.156 249.937 567.184 250.181C565.212 250.425 563.899 252.912 564.25 255.737C564.601 258.562 566.485 260.654 568.456 260.41Z" fill="#FFC245"/>
<path d="M514.541 324.732C516.513 324.488 517.826 322.001 517.475 319.176C517.124 316.351 515.24 314.259 513.269 314.502C511.297 314.746 509.983 317.233 510.335 320.058C510.686 322.883 512.57 324.975 514.541 324.732Z" fill="#FFC245"/>
<path d="M541.582 334.489C543.554 334.245 544.867 331.757 544.516 328.933C544.165 326.108 542.281 324.015 540.31 324.259C538.338 324.503 537.024 326.99 537.376 329.815C537.727 332.64 539.61 334.732 541.582 334.489Z" fill="#FFC245"/>
<path d="M508.748 362.116C510.719 361.873 512.033 359.385 511.681 356.561C511.33 353.736 509.447 351.643 507.475 351.887C505.503 352.131 504.19 354.618 504.541 357.443C504.893 360.268 506.776 362.36 508.748 362.116Z" fill="#FFC245"/>
<path d="M273.323 312.307C277.689 311.148 280.574 307.754 279.765 304.726C278.956 301.698 274.76 300.184 270.393 301.343C266.026 302.502 263.142 305.896 263.951 308.923C264.76 311.951 268.956 313.466 273.323 312.307Z" fill="#FFC245"/>
<path d="M219.837 313.297C224.203 312.138 227.088 308.744 226.279 305.716C225.47 302.689 221.274 301.174 216.907 302.333C212.54 303.492 209.656 306.886 210.465 309.914C211.274 312.941 215.47 314.456 219.837 313.297Z" fill="#FFC245"/>
<path d="M282.828 267.958C287.195 266.799 290.079 263.405 289.27 260.377C288.461 257.35 284.265 255.835 279.898 256.994C275.531 258.153 272.647 261.547 273.456 264.575C274.265 267.602 278.461 269.117 282.828 267.958Z" fill="#FFC245"/>
<path d="M298.6 249.104C300.571 248.86 301.885 246.373 301.533 243.548C301.182 240.723 299.299 238.631 297.327 238.874C295.355 239.118 294.042 241.605 294.393 244.43C294.745 247.255 296.628 249.347 298.6 249.104Z" fill="#FFC245"/>
<path d="M302.594 215.644C304.566 215.4 305.879 212.913 305.528 210.088C305.177 207.263 303.293 205.171 301.322 205.414C299.35 205.658 298.036 208.145 298.388 210.97C298.739 213.795 300.623 215.887 302.594 215.644Z" fill="#FFC245"/>
<path d="M248.679 279.968C250.651 279.724 251.964 277.237 251.613 274.412C251.261 271.587 249.378 269.495 247.406 269.739C245.435 269.982 244.121 272.47 244.473 275.294C244.824 278.119 246.707 280.212 248.679 279.968Z" fill="#FFC245"/>
<path d="M275.72 289.722C277.692 289.478 279.005 286.991 278.654 284.166C278.302 281.341 276.419 279.249 274.447 279.492C272.476 279.736 271.162 282.224 271.514 285.048C271.865 287.873 273.748 289.966 275.72 289.722Z" fill="#FFC245"/>
<path d="M242.885 317.352C244.857 317.108 246.171 314.621 245.819 311.796C245.468 308.971 243.585 306.879 241.613 307.122C239.641 307.366 238.328 309.853 238.679 312.678C239.031 315.503 240.914 317.596 242.885 317.352Z" fill="#FFC245"/>
<path d="M598.282 107.336C602.649 106.177 605.533 102.783 604.724 99.7553C603.915 96.7277 599.719 95.213 595.352 96.3721C590.985 97.5311 588.101 100.925 588.91 103.953C589.719 106.98 593.915 108.495 598.282 107.336Z" fill="#FFC245"/>
<path d="M544.793 108.321C549.16 107.162 552.044 103.768 551.235 100.741C550.426 97.7131 546.231 96.1983 541.864 97.3574C537.497 98.5164 534.613 101.91 535.422 104.938C536.231 107.966 540.427 109.48 544.793 108.321Z" fill="#FFC245"/>
<path d="M607.785 62.9804C612.152 61.8214 615.036 58.4274 614.227 55.3998C613.418 52.3722 609.222 50.8575 604.855 52.0165C600.488 53.1756 597.604 56.5696 598.413 59.5972C599.222 62.6248 603.418 64.1395 607.785 62.9804Z" fill="#FFC245"/>
<path d="M623.559 44.1331C625.53 43.8895 626.844 41.402 626.493 38.5772C626.141 35.7524 624.258 33.6599 622.286 33.9036C620.314 34.1472 619.001 36.6347 619.352 39.4595C619.704 42.2843 621.587 44.3768 623.559 44.1331Z" fill="#FFC245"/>
<path d="M627.551 10.6702C629.523 10.4266 630.836 7.93911 630.485 5.1143C630.134 2.28949 628.25 0.197046 626.279 0.440685C624.307 0.684324 622.993 3.17179 623.345 5.99659C623.696 8.8214 625.579 10.9139 627.551 10.6702Z" fill="#FFC245"/>
<path d="M573.636 74.9925C575.608 74.7489 576.921 72.2614 576.57 69.4366C576.218 66.6118 574.335 64.5193 572.363 64.763C570.392 65.0066 569.078 67.4941 569.43 70.3189C569.781 73.1437 571.664 75.2361 573.636 74.9925Z" fill="#FFC245"/>
<path d="M600.677 84.7493C602.649 84.5057 603.962 82.0182 603.611 79.1934C603.259 76.3686 601.376 74.2762 599.404 74.5198C597.433 74.7634 596.119 77.2509 596.471 80.0757C596.822 82.9005 598.705 84.9929 600.677 84.7493Z" fill="#FFC245"/>
<path d="M567.845 112.379C569.816 112.136 571.13 109.648 570.779 106.823C570.427 103.998 568.544 101.906 566.572 102.15C564.6 102.393 563.287 104.881 563.638 107.706C563.99 110.53 565.873 112.623 567.845 112.379Z" fill="#FFC245"/>
<path d="M257.253 319.891C248.502 319.891 242.813 317.724 240.295 313.415C235.329 304.92 243.646 290.013 265.013 269.11L266.808 270.932C246.96 290.35 238.33 304.981 242.509 312.13C245.153 316.652 253.021 318.273 265.268 316.815C277.426 315.369 293.539 311.057 313.158 304.001C353.548 289.473 404.221 264.967 455.843 234.998C507.464 205.03 553.848 173.187 586.454 145.337C592.716 139.987 598.4 134.84 603.346 130.04C609.84 123.893 615.831 117.239 621.261 110.141C628.575 100.244 631.043 92.6223 628.399 88.0995C623.984 80.5455 605.435 81.2558 576.168 90.1024L575.424 87.6585C606.825 78.1685 625.394 77.8838 630.613 86.8144C633.857 92.363 631.404 100.721 623.325 111.656C617.811 118.866 611.728 125.625 605.134 131.87C600.149 136.707 594.425 141.89 588.121 147.276C555.402 175.224 508.883 207.161 457.133 237.205C405.381 267.249 354.558 291.824 314.028 306.403C294.226 313.525 277.923 317.882 265.572 319.351C262.812 319.694 260.034 319.874 257.253 319.891Z" fill="#3F3D56"/>
</svg>
