<svg width="631" height="470" viewBox="0 0 631 470" fill="none" xmlns="http://www.w3.org/2000/svg">
<g clip-path="url(#clip0_2_43505)">
<path d="M571.371 467.823H437.578V463.695C437.578 460.11 438.994 456.673 441.515 454.138C444.035 451.604 447.454 450.18 451.019 450.18H557.93C561.495 450.18 564.914 451.604 567.435 454.138C569.955 456.673 571.371 460.11 571.371 463.695V467.823Z" fill="#CACACA"/>
<path d="M501.344 451.003L505.412 449.356C462.84 343.103 466.942 209.055 502.929 94.0667C507.204 80.7436 507.512 66.4546 503.816 52.9576C500.12 39.4607 492.58 27.3445 482.125 18.0997C461.237 -0.643103 432.44 -5.20902 406.967 6.1826C381.823 17.4289 378.358 37.0181 378.358 56.5121H382.744C382.744 35.7033 387.167 19.8663 408.75 10.2128C432.624 -0.463265 459.62 3.8189 479.204 21.3912C489.024 30.074 496.106 41.4539 499.577 54.1308C503.049 66.8077 502.76 80.2285 498.744 92.7421C462.342 209.059 458.481 344.027 501.344 451.003Z" fill="#CACACA"/>
<path d="M381.648 121.572C390.127 121.572 397.001 114.66 397.001 106.134C397.001 97.6078 390.127 90.696 381.648 90.696C373.168 90.696 366.294 97.6078 366.294 106.134C366.294 114.66 373.168 121.572 381.648 121.572Z" fill="#CACACA"/>
<path d="M358.002 133.047V103.796H362.526V133.047C363.823 133.575 364.898 134.54 365.565 135.777C366.233 137.014 366.451 138.446 366.184 139.827C365.917 141.209 365.18 142.454 364.1 143.349C363.02 144.244 361.663 144.733 360.264 144.733C358.864 144.733 357.508 144.244 356.428 143.349C355.348 142.454 354.611 141.209 354.344 139.827C354.076 138.446 354.295 137.014 354.963 135.777C355.63 134.54 356.705 133.575 358.002 133.047Z" fill="#CACACA"/>
<path d="M336.136 81.3228C336.143 74.5986 338.803 68.1521 343.532 63.3974C348.261 58.6426 354.672 55.9681 361.359 55.9604H403.033C409.722 55.9604 416.138 58.6325 420.868 63.3889C425.599 68.1453 428.256 74.5963 428.256 81.3228C428.256 88.0493 425.599 94.5003 420.868 99.2567C416.138 104.013 409.722 106.685 403.033 106.685H361.359C354.672 106.678 348.261 104.003 343.532 99.2483C338.803 94.4935 336.143 88.047 336.136 81.3228Z" fill="#5666ED"/>
<path d="M277.42 238.383C281.604 184.556 302.997 158.911 289.299 142.828C276.177 127.423 239.217 130.605 215.48 145.388C151.457 185.259 128.001 344.172 210.389 421.813C288.679 495.591 437.053 471.962 470.027 411.575C477.721 397.485 483.833 372.784 472.572 357.825C444.616 320.687 342.974 387.955 297.784 345.881C271.002 320.947 275.124 267.922 277.42 238.383Z" fill="#3F3D56"/>
<path d="M326.36 211.642C324.805 212.361 323.59 213.662 322.975 215.268C322.359 216.874 322.391 218.658 323.064 220.24C323.205 220.56 323.373 220.867 323.565 221.159L309.823 239.608L316.681 249.913L332.788 222.593C333.929 221.699 334.743 220.449 335.104 219.04C335.465 217.631 335.351 216.141 334.781 214.803C334.45 214.045 333.973 213.36 333.378 212.788C332.784 212.215 332.083 211.766 331.315 211.465C330.548 211.165 329.729 211.02 328.906 211.038C328.082 211.056 327.27 211.236 326.517 211.57C326.464 211.593 326.412 211.617 326.36 211.642Z" fill="#FFB6B6"/>
<path d="M326.349 243.451C327.248 244.253 324.754 245.243 322.115 243.682C321.36 243.23 321.037 243.042 320.952 243.161C320.74 243.46 321.979 245.661 321.648 250.55C321.445 253.468 316.625 258.953 311.152 264.303C303.754 271.538 295.15 278.516 295.15 278.516L292.129 276.085L260.455 250.55L255.11 243.11C255.599 240.172 256.334 237.281 257.307 234.468C258.648 230.573 260.24 226.771 262.076 223.086C263.06 221.081 264.07 219.17 265.037 217.413L282.007 236.217L296.227 251.966C296.227 251.966 300.368 245.26 303.575 243.434C303.984 243.172 304.45 243.011 304.933 242.965C308.174 242.811 308.369 241.037 304.611 237.172C300.852 233.307 305.595 236.916 308.938 235.875C312.281 234.834 308.938 235.875 309.642 233.273C310.346 230.671 319.722 225.45 319.722 225.45L320.112 225.799L327.197 232.087L329.225 233.887C329.225 233.887 327.011 239.996 326.4 241.284C325.789 242.573 325.458 242.641 326.349 243.451Z" fill="#5666ED"/>
<path d="M513.116 361.969L513.461 352.558L477.526 346.741L477.016 360.629L513.116 361.969Z" fill="#FFB6B6"/>
<path d="M506.593 364.802L506.252 349.735L512.658 349.972L523 336.043C523.511 335.355 524.227 334.849 525.044 334.599C525.861 334.349 526.736 334.368 527.541 334.654C528.346 334.94 529.04 335.476 529.52 336.186C530 336.896 530.242 337.742 530.211 338.6L529.554 356.499L523.104 359.349L529.396 360.789L529.149 367.537L506.593 364.802Z" fill="#2F2E41"/>
<path d="M310.87 365.633L424.689 368.535C424.689 368.535 473.84 371.389 485.372 363.846L497.533 362.302L498.192 344.341C498.192 344.341 490.756 344.396 486.48 342.393C482.205 340.39 485.176 337.939 481.1 340.349C477.023 342.759 477.454 343.049 474.302 341.941C471.151 340.834 326.623 318.683 326.623 318.683L310.87 365.633Z" fill="#2F2E41"/>
<path d="M460.854 357.838L467.472 351.176L445.064 322.336L435.295 332.17L460.854 357.838Z" fill="#FFB6B6"/>
<path d="M454.155 352.042L464.097 340.763L468.633 345.318L485.636 342.18C486.476 342.024 487.343 342.143 488.111 342.519C488.879 342.894 489.507 343.507 489.904 344.267C490.302 345.027 490.447 345.894 490.319 346.743C490.191 347.592 489.796 348.378 489.193 348.985L476.604 361.658L469.948 359.336L473.587 364.695L468.841 369.473L454.155 352.042Z" fill="#2F2E41"/>
<path d="M265.966 302.955L267.097 329.403C268.429 360.537 302.529 379.381 328.972 363.125C329.459 362.826 329.948 362.515 330.439 362.194C330.439 362.194 340.463 359.487 340.159 355.201C339.854 350.914 342.303 348.828 344.47 349.997C346.638 351.166 375.013 310.674 375.013 310.674C375.013 310.674 433.967 340.243 446.973 347.204C446.973 347.204 459.201 327.98 458.314 328.181C457.428 328.383 385.381 277.679 385.381 277.679C385.381 277.679 373.643 265.734 359.084 273.621C358.78 274.779 359.04 274.819 359.04 274.819L310.943 314.226L304.148 301.249L265.966 302.955Z" fill="#2F2E41"/>
<path d="M311.314 269.891C311.222 271.113 311.049 272.327 310.796 273.525C310.45 275.26 309.891 276.945 309.133 278.542C309.133 278.542 309.133 280.325 305.739 286.297C302.345 292.269 306.588 289.71 309.133 294.146C311.678 298.574 309.133 296.535 306.307 299.385C305.494 300.214 304.916 301.247 304.634 302.377C304.352 303.507 304.376 304.692 304.704 305.809C304.704 305.809 268.253 305.835 261.465 303.275C254.677 300.716 253.133 286.297 259.216 284.872C265.291 283.448 257.375 282.031 253.803 278.747C250.231 275.462 257.375 270.087 257.375 270.087C257.375 270.087 254.431 264.977 254.677 247.82C254.712 246.242 254.856 244.668 255.11 243.11C255.599 240.172 256.334 237.281 257.307 234.468C258.647 230.573 260.24 226.771 262.076 223.086C263.06 221.081 264.07 219.17 265.037 217.413C265.19 217.14 265.334 216.875 265.487 216.611C267.328 213.335 269.008 210.656 270.119 208.941C270.976 207.61 271.494 206.859 271.494 206.859L277.671 196.058L298.289 205.776L297.118 221.67L300.673 233.657L302.311 239.177L303.575 243.434L305.527 250.029C305.527 250.029 304.992 250.055 305.629 250.934C308.559 254.852 310.459 259.45 311.152 264.303C311.397 266.155 311.451 268.027 311.314 269.891Z" fill="#5666ED"/>
<path d="M370.857 271.604L370.47 271.478L321.121 255.499L339.306 195.512C339.668 194.317 340.295 193.221 341.14 192.306C341.984 191.39 343.025 190.679 344.182 190.227C345.34 189.775 346.585 189.592 347.822 189.694C349.06 189.796 350.259 190.179 351.328 190.814L382.864 209.548C385.361 211.03 387.26 213.346 388.23 216.092C389.2 218.839 389.18 221.841 388.172 224.574L370.857 271.604Z" fill="#2F2E41"/>
<path d="M371.057 275.417L321.311 259.31L339.496 199.322C339.858 198.128 340.485 197.032 341.33 196.116C342.175 195.201 343.215 194.49 344.373 194.038C345.53 193.585 346.775 193.403 348.013 193.505C349.251 193.606 350.449 193.989 351.519 194.624L384.56 211.212C389.524 214.16 389.408 221.791 387.103 228.051L371.057 275.417Z" fill="#5666ED"/>
<path d="M366.077 279.759C364.931 280.409 363.664 280.812 362.355 280.943C361.046 281.074 359.725 280.93 358.474 280.52L326.678 270.224C324.238 269.422 322.207 267.693 321.018 265.406C319.829 263.119 319.576 260.456 320.314 257.984L336.256 205.398C336.574 204.347 337.098 203.371 337.797 202.527C338.495 201.682 339.355 200.987 340.324 200.481C341.294 199.975 342.354 199.669 343.443 199.58C344.531 199.492 345.627 199.622 346.664 199.965L379.615 210.844C381.185 211.362 382.636 212.192 383.882 213.283C385.128 214.375 386.144 215.706 386.869 217.199C387.595 218.692 388.016 220.316 388.106 221.975C388.197 223.634 387.957 225.294 387.399 226.858L370.354 274.639C369.589 276.808 368.07 278.627 366.077 279.759Z" fill="#3F3D56"/>
<path d="M297.124 196.242C309.701 196.242 319.898 185.99 319.898 173.343C319.898 160.696 309.701 150.443 297.124 150.443C284.546 150.443 274.349 160.696 274.349 173.343C274.349 185.99 284.546 196.242 297.124 196.242Z" fill="#FFB6B6"/>
<path d="M220.112 196.587C222.202 200.661 225.629 203.882 229.811 205.705C231.48 206.469 233.235 207.028 235.038 207.368C235.548 205.336 236.363 203.395 237.457 201.611C237.092 203.621 237.092 205.682 237.457 207.692C240.203 207.918 242.966 207.573 245.574 206.679C248.136 205.803 250.459 204.339 252.359 202.403C254.26 200.467 255.686 198.112 256.523 195.525C258.338 189.455 256.384 182.972 256.23 176.636C256.071 170.3 259.064 162.721 265.319 161.937C270.084 161.339 269.495 161.803 272.918 165.187C268.129 170.536 279.803 194.226 286.067 193.179C289.609 192.587 292.215 189.76 292.915 189.858C296.502 198.69 285.713 211.216 294.27 215.329L293.635 214.484C289.156 207.043 302.41 194.477 297.93 187.036C296.682 184.955 295.383 182.515 296.156 180.212C296.889 178.023 300.603 177.33 301.386 179.323C300.113 174.756 303.668 169.395 308.39 168.929C312.586 168.513 312.344 169.715 316.344 170.812C316.855 169.08 317.591 167.423 318.534 165.884C318.215 167.639 318.176 169.435 318.417 171.203C319.86 171.376 321.319 171.065 322.569 170.319C326.263 168.092 326.372 162.345 323.835 158.847C321.293 155.348 317.035 153.621 312.927 152.314C312.889 143.578 289.513 139.396 285.213 147.518C284.771 140.942 277.274 136.512 270.816 137.629C264.358 138.746 259.264 143.953 256.157 149.757C253.052 155.556 251.51 162.049 249.237 168.226C246.963 174.403 243.713 180.562 238.269 184.227C232.826 187.887 224.736 188.22 220.191 183.475C219.155 185.501 218.607 187.744 218.593 190.022C218.58 192.3 219.1 194.549 220.112 196.587Z" fill="#2F2E41"/>
<path d="M243.48 301.306C243.951 300.928 244.463 300.602 245.005 300.336C253.722 295.973 280.83 284.65 302.026 285.114C342.809 286.008 394.712 331.266 382.632 361.658C373.441 384.784 327.746 397.941 294.389 387.418C247.66 372.676 229.216 312.743 243.48 301.306Z" fill="#3F3D56"/>
<path d="M74.1708 467.91C60.8445 465.382 49.0482 405.014 75.2675 375.282C84.2506 365.096 95.4559 360.662 110.361 356.536C196.15 332.788 261.582 355.421 270.375 360.947C279.149 366.461 294.529 449.535 274.861 461.294C263.795 467.91 241.862 471.218 230.995 463.499C215.004 452.141 241.844 422.681 229.898 402.85C216.341 380.347 144.955 372.767 109.165 395.131C70.9807 418.992 149.742 482.245 74.1708 467.91Z" fill="#FAFAFA"/>
<path d="M163.269 365.271H112.358C99.7898 353.16 90.8037 341.488 97.9981 331.799C97.9981 329.014 99.0984 326.343 101.057 324.374C103.015 322.405 105.672 321.298 108.441 321.298H167.186C169.955 321.298 172.612 322.405 174.57 324.374C176.529 326.343 177.629 329.014 177.629 331.799C180.368 342.839 175.475 353.998 163.269 365.271Z" fill="#CACACA"/>
<path d="M154.126 308.079C153.643 308.101 153.165 307.973 152.756 307.713C152.348 307.453 152.028 307.073 151.842 306.624C151.655 306.176 151.61 305.68 151.713 305.205C151.816 304.73 152.062 304.298 152.417 303.968L152.578 303.322C152.557 303.271 152.536 303.219 152.514 303.167C152.028 302.011 151.212 301.026 150.17 300.335C149.128 299.643 147.907 299.277 146.658 299.282C145.41 299.286 144.191 299.662 143.155 300.361C142.118 301.06 141.31 302.051 140.832 303.211C138.921 307.838 136.488 312.473 135.889 317.366C135.625 319.529 135.737 321.721 136.218 323.845C131.73 314.002 129.4 303.303 129.385 292.474C129.384 289.757 129.534 287.042 129.835 284.342C130.083 282.128 130.428 279.93 130.868 277.747C133.274 265.907 138.438 254.808 145.938 245.364C149.567 243.373 152.503 240.311 154.348 236.59C155.017 235.253 155.489 233.825 155.751 232.351C155.342 232.405 154.207 226.135 154.516 225.751C153.945 224.88 152.924 224.447 152.301 223.598C149.201 219.372 144.931 220.11 142.702 225.852C137.94 228.269 137.894 232.276 140.816 236.131C142.675 238.583 142.93 241.902 144.562 244.527C144.394 244.743 144.219 244.952 144.051 245.168C140.984 249.135 138.31 253.394 136.069 257.884C136.614 252.853 135.963 247.764 134.171 243.036C132.354 238.629 128.949 234.917 125.95 231.107C122.348 226.531 114.962 228.528 114.327 234.329C114.321 234.385 114.315 234.442 114.309 234.498C114.754 234.75 115.19 235.019 115.617 235.302C116.153 235.662 116.568 236.177 116.808 236.778C117.049 237.38 117.103 238.04 116.963 238.673C116.824 239.305 116.497 239.881 116.027 240.324C115.557 240.767 114.964 241.057 114.327 241.156L114.262 241.166C114.421 242.78 114.701 244.38 115.101 245.951C111.254 260.911 119.559 266.36 131.419 266.604C131.681 266.739 131.936 266.874 132.197 267.003C129.946 273.419 128.533 280.103 127.995 286.886C127.691 290.888 127.709 294.908 128.049 298.907L128.029 298.765C127.17 294.318 124.811 290.306 121.35 287.406C116.21 283.16 108.949 281.597 103.404 278.185C102.815 277.804 102.13 277.601 101.429 277.599C100.729 277.598 100.043 277.797 99.4519 278.175C98.8608 278.552 98.3893 279.092 98.0932 279.73C97.7971 280.368 97.6886 281.078 97.7806 281.776C97.788 281.826 97.7956 281.876 97.8033 281.925C98.6299 282.264 99.4346 282.654 100.213 283.093C100.658 283.346 101.094 283.614 101.521 283.897C102.057 284.257 102.472 284.772 102.712 285.373C102.953 285.975 103.007 286.635 102.867 287.268C102.728 287.901 102.401 288.476 101.931 288.919C101.461 289.362 100.868 289.652 100.231 289.751L100.166 289.761C100.119 289.768 100.079 289.775 100.032 289.782C101.444 293.172 103.426 296.293 105.892 299.008C108.297 312.067 118.629 313.306 129.68 309.503H129.687C130.9 314.801 132.656 319.958 134.929 324.891H153.657C153.724 324.682 153.784 324.466 153.845 324.257C152.111 324.367 150.371 324.262 148.663 323.947C150.052 322.232 151.442 320.504 152.831 318.79C152.862 318.758 152.891 318.724 152.918 318.689C153.623 317.811 154.335 316.941 155.04 316.063L155.04 316.062C155.077 313.373 154.77 310.689 154.126 308.079Z" fill="#CACACA"/>
<path d="M218.002 362.528C218.312 363.438 218.902 364.225 219.685 364.776C220.468 365.328 221.405 365.616 222.361 365.598L241.038 365.115C242.001 365.096 242.932 364.765 243.692 364.169C244.452 363.574 245 362.748 245.254 361.814L247.897 333.396C248.835 333.823 249.856 334.034 250.885 334.013C252.691 333.968 254.405 333.203 255.65 331.887C256.895 330.57 257.569 328.811 257.524 326.995C257.478 325.179 256.717 323.456 255.408 322.204C254.099 320.952 252.349 320.275 250.543 320.32C250.132 320.319 249.722 320.362 249.319 320.448C248.882 319.972 248.35 319.594 247.758 319.337C247.166 319.08 246.528 318.951 245.883 318.957L217.154 319.703C216.915 319.712 216.678 319.742 216.445 319.792C215.815 319.91 215.217 320.162 214.692 320.532C214.168 320.902 213.728 321.38 213.402 321.935C213.077 322.491 212.873 323.109 212.805 323.75C212.738 324.391 212.807 325.039 213.009 325.65L218.002 362.528ZM248.439 331.467L250.32 324.695C250.534 323.913 250.539 323.087 250.335 322.303C250.426 322.302 250.506 322.259 250.598 322.259C251.887 322.232 253.134 322.721 254.066 323.617C254.998 324.514 255.538 325.745 255.568 327.042C255.598 328.338 255.116 329.594 254.227 330.533C253.338 331.473 252.115 332.019 250.826 332.053C249.992 332.08 249.167 331.877 248.439 331.467Z" fill="#CACACA"/>
<path d="M216.445 319.792C217.057 323.311 223.938 325.784 232.213 325.354C239.822 325.002 246.044 322.315 247.183 319.131C246.762 319.006 246.323 318.947 245.883 318.957L217.154 319.703C216.915 319.712 216.678 319.742 216.445 319.792Z" fill="#FAFAFA"/>
<path d="M1.00024 469.243L630 469.502C630.265 469.502 630.519 469.396 630.707 469.208C630.895 469.019 631 468.763 631 468.496C631 468.23 630.895 467.974 630.707 467.785C630.519 467.597 630.265 467.491 630 467.491L1.00024 467.231C0.734962 467.231 0.480548 467.337 0.292964 467.526C0.105381 467.714 0 467.97 0 468.237C0 468.504 0.105381 468.759 0.292964 468.948C0.480548 469.137 0.734962 469.243 1.00024 469.243Z" fill="#CACACA"/>
<path d="M353.786 244.466C352.076 244.528 350.457 245.26 349.275 246.504C348.092 247.749 347.44 249.408 347.455 251.129C347.464 251.479 347.501 251.827 347.567 252.171L327.827 263.89L330.216 276.053L355.532 257.061C356.928 256.676 358.158 255.837 359.029 254.676C359.901 253.514 360.366 252.095 360.352 250.64C360.335 249.812 360.157 248.996 359.827 248.237C359.497 247.479 359.022 246.793 358.428 246.219C357.834 245.645 357.134 245.194 356.367 244.892C355.6 244.591 354.782 244.444 353.959 244.46C353.901 244.461 353.844 244.463 353.786 244.466Z" fill="#FFB6B6"/>
<path d="M337.616 272.402C337.087 271.691 336.861 271.393 336.74 271.475C336.431 271.662 336.729 274.176 334.555 278.556C331.494 284.709 299.403 294.134 299.403 294.134L295.452 286.861L278.073 254.898L272.083 229.278C271.873 228.385 271.771 227.47 271.78 226.552C277.12 222.773 282.792 219.49 288.725 216.744C291.095 218.096 292.903 220.261 293.816 222.843L305.779 256.571L310.553 270.037C310.553 270.037 318.974 263.983 322.028 265.094C325.078 266.212 325.945 264.644 323.951 259.625C321.958 254.605 324.95 259.772 328.432 260.1C331.921 260.434 328.432 260.1 330.08 257.97C331.728 255.84 342.382 254.642 342.382 254.642L342.609 255.117L346.738 263.657L347.92 266.111C347.92 266.111 343.542 270.887 342.486 271.838C341.425 272.797 341.097 272.731 341.617 273.823C342.13 274.91 339.45 274.861 337.616 272.402Z" fill="#5666ED"/>
</g>
<defs>
<clipPath id="clip0_2_43505">
<rect width="631" height="470" fill="white"/>
</clipPath>
</defs>
</svg>
