<svg width="40" height="40" viewBox="0 0 40 40" fill="none" xmlns="http://www.w3.org/2000/svg">
<path d="M19.5092 1.62939C20.381 1.17479 21.4452 2.22939 20.982 3.10039C20.713 3.81039 19.693 3.99919 19.172 3.45799C18.62 2.93859 18.8 1.91199 19.5092 1.62939ZM10.1322 2.64019C10.6618 2.42219 11.3322 2.90739 11.2782 3.48459C11.3344 4.11119 10.5682 4.57239 10.0284 4.27459C9.31324 3.99759 9.39504 2.83659 10.1322 2.64019ZM29.3374 4.29219C28.5098 4.19219 28.3788 2.89099 29.1756 2.62899C29.7936 2.32759 30.3606 2.89279 30.451 3.47859C30.3214 3.97879 29.9026 4.43679 29.3374 4.29219ZM12.2658 6.63119C13.1512 6.07119 14.4146 6.90519 14.2784 7.93359C14.2324 8.97199 12.8532 9.57359 12.075 8.87159C11.3226 8.32019 11.4366 7.05519 12.2658 6.63119ZM25.782 7.22539C26.177 6.20739 27.7776 6.17659 28.2272 7.16759C28.6716 7.93879 28.125 8.89379 27.3332 9.15599C26.2844 9.35179 25.2882 8.21799 25.782 7.22539ZM18.38 9.09819C18.3714 8.22319 19.1684 7.57119 20 7.51159C20.5516 7.62219 21.1528 7.85719 21.3894 8.41379C21.8304 9.18159 21.4388 10.2388 20.642 10.5912C20.2776 10.7954 19.8468 10.7188 19.45 10.695C18.8434 10.3972 18.3326 9.81319 18.38 9.09819ZM4.43504 10.3732C5.24384 9.87599 6.33504 10.7834 6.02884 11.662C5.86024 12.422 4.83864 12.7312 4.25464 12.246C3.63124 11.7914 3.73004 10.6984 4.43504 10.3732ZM34.38 10.3716C35.0662 9.83879 36.1986 10.45 36.1168 11.3164C36.1628 12.1064 35.1838 12.7022 34.5026 12.2954C33.7524 11.9582 33.6758 10.804 34.38 10.3716ZM22.3016 11.9446C23.434 11.5378 24.779 12.0246 25.4244 13.0342C26.2758 14.2684 25.8228 16.148 24.5016 16.8562C23.1326 17.6938 21.1336 16.9838 20.628 15.455C20.054 14.0864 20.8902 12.3736 22.3016 11.9446ZM15.6576 12.0792C16.9126 11.4868 18.6016 11.9838 19.2078 13.2676C19.9212 14.5172 19.3696 16.2572 18.0942 16.9024C16.8172 17.6276 15.0156 17.0778 14.3976 15.7362C13.7046 14.4388 14.32 12.6766 15.6576 12.0792ZM9.00504 14.3536C9.10044 13.545 9.86324 13.0188 10.6328 12.9644C11.462 13.0644 12.1244 13.7084 12.2146 14.5476C12.1602 15.3784 11.5182 16.1904 10.6378 16.1854C9.66924 16.2688 8.82004 15.3052 9.00504 14.3536ZM28.6546 13.1402C29.649 12.5614 31.0298 13.404 30.9856 14.5464C31.0538 15.7568 29.5256 16.6098 28.5354 15.8998C27.5068 15.3086 27.587 13.6436 28.6546 13.1402ZM12.9538 17.4062C14.1168 17.0862 15.4466 17.6344 16.017 18.7034C16.6418 19.7794 16.3864 21.2742 15.416 22.0634C14.1714 23.221 11.876 22.7562 11.2136 21.1764C10.4524 19.7282 11.377 17.7874 12.9538 17.4062ZM25.5556 17.4002C26.6862 17.0768 28.0144 17.5126 28.6222 18.5426C29.4258 19.7206 29.0422 21.4776 27.8458 22.237C26.5926 23.1188 24.6514 22.6558 23.9618 21.277C23.1258 19.8508 23.967 17.8352 25.5556 17.4002ZM5.47364 18.7442C6.47824 18.3642 7.59184 19.4728 7.18484 20.4688C6.93624 21.3762 5.65744 21.7116 4.99684 21.0426C4.22384 20.4144 4.51004 19.0166 5.47364 18.7442ZM32.7036 20.1896C32.6746 19.3572 33.2836 18.62 34.1372 18.574C34.8252 18.683 35.4942 19.238 35.4398 19.987C35.5028 20.9762 34.3108 21.6486 33.468 21.1838C33.073 20.983 32.8704 20.5778 32.7036 20.1896ZM0.534039 19.2328C1.13844 18.969 1.88604 19.4928 1.74804 20.164C1.71564 20.924 0.593639 21.2162 0.181439 20.5812C-0.182761 20.1402 0.0352388 19.4602 0.534039 19.2328ZM38.6426 19.2176C39.0682 18.9146 39.751 19.1324 39.9196 19.6296C40.2056 20.1726 39.6812 20.9166 39.07 20.8248C38.212 20.903 37.9344 19.5954 38.6426 19.2176ZM16.2366 22.8658C17.827 22.4522 19.5366 23.7784 19.5466 25.416C19.6504 27.0708 17.9666 28.5382 16.3386 28.156C15.0802 27.9534 14.0928 26.7412 14.1336 25.4696C14.1302 24.2534 15.048 23.123 16.2366 22.8658ZM22.535 22.8624C24.1492 22.4112 25.9098 23.7612 25.8842 25.4366C25.9694 27.0608 24.3382 28.4788 22.7442 28.1566C21.2442 27.9626 20.1374 26.3146 20.5562 24.859C20.7676 23.889 21.578 23.1002 22.535 22.8624ZM10.3912 23.8704C11.5082 23.6798 12.5554 24.926 12.1024 25.9866C11.772 27.1168 10.1272 27.4234 9.40004 26.5002C8.54704 25.6136 9.18384 23.9928 10.3912 23.8704ZM28.8622 23.9202C29.8582 23.503 31.0808 24.3646 31.0042 25.4456C31.0442 26.6356 29.5348 27.4562 28.5608 26.7616C27.4576 26.138 27.6584 24.3028 28.8622 23.9202ZM34.025 29.0986C33.635 28.3716 34.3434 27.408 35.1506 27.5426C35.5524 27.5358 35.8334 27.8524 36.0906 28.118C36.1434 28.5488 36.232 29.0628 35.8744 29.3948C35.3888 30.0094 34.2888 29.834 34.025 29.0986ZM4.43164 27.745C5.18604 27.2428 6.27164 27.9918 6.10204 28.8738C6.01184 29.6538 5.02924 30.0996 4.38204 29.657C3.68744 29.2552 3.71304 28.1112 4.43164 27.745ZM19.3356 29.3778C20.3232 28.942 21.5814 29.8018 21.4878 30.8896C21.561 32.0916 20.0048 32.924 19.0392 32.2022C17.9666 31.5824 18.1454 29.759 19.3356 29.3778ZM12.4326 30.9882C13.2738 30.5456 14.4026 31.31 14.326 32.2514C14.3516 33.0244 13.5972 33.6832 12.8344 33.569C12.2026 33.5554 11.7906 32.989 11.588 32.4504C11.5984 31.8634 11.84 31.2096 12.4326 30.9882ZM26.4154 31.0018C27.2804 30.4672 28.5098 31.235 28.428 32.2418C28.4502 33.294 27.0608 33.968 26.2554 33.2768C25.4756 32.735 25.5708 31.4326 26.4154 31.0018ZM28.847 37.0132C28.4622 36.431 28.9152 35.7296 29.54 35.5968C30.0424 35.699 30.5736 36.0768 30.468 36.6592C30.3948 37.4474 29.242 37.6892 28.847 37.0132ZM9.54484 36.5076C9.69804 36.0462 10.0692 35.5876 10.6124 35.7076C11.4042 35.7638 11.6392 36.9572 10.9462 37.325C10.323 37.7452 9.60004 37.1698 9.54484 36.5076ZM18.857 37.037C19.0086 36.3544 19.8922 36.0224 20.4746 36.385C20.8594 36.5502 20.9718 36.9808 21.0706 37.3468C21.0178 37.5374 20.9706 37.7282 20.9242 37.9188C20.6858 38.2014 20.3794 38.484 19.9826 38.4738C19.2452 38.5602 18.58 37.7266 18.857 37.037Z" fill="#161616"/>
</svg>
